<svg width="36" height="42" viewBox="0 0 36 42" fill="none" xmlns="http://www.w3.org/2000/svg">
<path fill-rule="evenodd" clip-rule="evenodd" d="M8.49999 18C8.49999 12.7533 12.7533 8.5 18 8.5C23.2467 8.5 27.5 12.7533 27.5 18C27.5 23.2467 23.2467 27.5 18 27.5C12.7533 27.5 8.49999 23.2467 8.49999 18ZM18 11.5C14.4101 11.5 11.5 14.4101 11.5 18C11.5 21.5899 14.4101 24.5 18 24.5C21.5898 24.5 24.5 21.5899 24.5 18C24.5 14.4101 21.5898 11.5 18 11.5Z" fill="black"/>
<path fill-rule="evenodd" clip-rule="evenodd" d="M1.04872 15.7137C1.75737 7.11648 8.94167 0.5 17.5681 0.5H18.4319C27.0583 0.5 34.2426 7.11648 34.9513 15.7137C35.3319 20.332 33.9054 24.9178 30.9721 28.5051L21.3859 40.2287C19.6359 42.3689 16.364 42.3689 14.614 40.2287L5.02792 28.5052C2.0946 24.9178 0.668038 20.332 1.04872 15.7137ZM17.5681 3.5C10.503 3.5 4.61897 8.91895 4.03858 15.9602C3.72175 19.8038 4.90904 23.6205 7.35036 26.6061L16.9365 38.3297C17.4861 39.0019 18.5138 39.0019 19.0635 38.3297L28.6496 26.6061C31.0909 23.6205 32.2782 19.8038 31.9614 15.9602C31.381 8.91895 25.497 3.5 18.4319 3.5H17.5681Z" fill="black"/>
</svg>
